<mxfile host="app.diagrams.net" modified="2024-03-06T06:55:42.166Z" agent="Mozilla/5.0 (Windows NT 10.0; Win64; x64) AppleWebKit/537.36 (KHTML, like Gecko) Chrome/122.0.0.0 Safari/537.36" version="24.0.2" etag="c1-F7sOK-Nokh9b56E_G" type="github">
  <diagram name="第 1 页" id="WWzA8w5VT9FHFFrnWb_J">
    <mxGraphModel>
      <root>
        <mxCell id="0" />
        <mxCell id="1" parent="0" />
      </root>
    </mxGraphModel>
  </diagram>
</mxfile>
